<svg style="position: absolute; width: 0; height: 0;" width="0" height="0" version="1.1" xmlns="http://www.w3.org/2000/svg" xmlns:xlink="http://www.w3.org/1999/xlink">
<defs>
<symbol id="icon-battery-2" viewBox="0 0 41 32">
<title>battery-2</title>
<path class="path1" d="M4.571 22.857v-13.714h16v13.714h-16zM38.857 10.286q0.946 0 1.616 0.67t0.67 1.616v6.857q0 0.946-0.67 1.616t-1.616 0.67v2.857q0 1.179-0.839 2.018t-2.018 0.839h-33.143q-1.179 0-2.018-0.839t-0.839-2.018v-17.143q0-1.179 0.839-2.018t2.018-0.839h33.143q1.179 0 2.018 0.839t0.839 2.018v2.857zM38.857 19.429v-6.857h-2.286v-5.143q0-0.25-0.161-0.411t-0.411-0.161h-33.143q-0.25 0-0.411 0.161t-0.161 0.411v17.143q0 0.25 0.161 0.411t0.411 0.161h33.143q0.25 0 0.411-0.161t0.161-0.411v-5.143h2.286z"></path>
</symbol>
<symbol id="icon-battery-4" viewBox="0 0 41 32">
<title>battery-4</title>
<path class="path1" d="M34.286 9.143v13.714h-29.714v-13.714h29.714zM36.571 19.429h2.286v-6.857h-2.286v-5.143q0-0.25-0.161-0.411t-0.411-0.161h-33.143q-0.25 0-0.411 0.161t-0.161 0.411v17.143q0 0.25 0.161 0.411t0.411 0.161h33.143q0.25 0 0.411-0.161t0.161-0.411v-5.143zM41.143 12.571v6.857q0 0.946-0.67 1.616t-1.616 0.67v2.857q0 1.179-0.839 2.018t-2.018 0.839h-33.143q-1.179 0-2.018-0.839t-0.839-2.018v-17.143q0-1.179 0.839-2.018t2.018-0.839h33.143q1.179 0 2.018 0.839t0.839 2.018v2.857q0.946 0 1.616 0.67t0.67 1.616z"></path>
</symbol>
<symbol id="icon-battery-0" viewBox="0 0 41 32">
<title>battery-0</title>
<path class="path1" d="M38.857 10.286q0.946 0 1.616 0.67t0.67 1.616v6.857q0 0.946-0.67 1.616t-1.616 0.67v2.857q0 1.179-0.839 2.018t-2.018 0.839h-33.143q-1.179 0-2.018-0.839t-0.839-2.018v-17.143q0-1.179 0.839-2.018t2.018-0.839h33.143q1.179 0 2.018 0.839t0.839 2.018v2.857zM38.857 19.429v-6.857h-2.286v-5.143q0-0.25-0.161-0.411t-0.411-0.161h-33.143q-0.25 0-0.411 0.161t-0.161 0.411v17.143q0 0.25 0.161 0.411t0.411 0.161h33.143q0.25 0 0.411-0.161t0.161-0.411v-5.143h2.286z"></path>
</symbol>
<symbol id="icon-battery-1" viewBox="0 0 41 32">
<title>battery-1</title>
<path class="path1" d="M4.571 22.857v-13.714h9.143v13.714h-9.143zM38.857 10.286q0.946 0 1.616 0.67t0.67 1.616v6.857q0 0.946-0.67 1.616t-1.616 0.67v2.857q0 1.179-0.839 2.018t-2.018 0.839h-33.143q-1.179 0-2.018-0.839t-0.839-2.018v-17.143q0-1.179 0.839-2.018t2.018-0.839h33.143q1.179 0 2.018 0.839t0.839 2.018v2.857zM38.857 19.429v-6.857h-2.286v-5.143q0-0.25-0.161-0.411t-0.411-0.161h-33.143q-0.25 0-0.411 0.161t-0.161 0.411v17.143q0 0.25 0.161 0.411t0.411 0.161h33.143q0.25 0 0.411-0.161t0.161-0.411v-5.143h2.286z"></path>
</symbol>
<symbol id="icon-battery-3" viewBox="0 0 41 32">
<title>battery-3</title>
<path class="path1" d="M4.571 22.857v-13.714h22.857v13.714h-22.857zM38.857 10.286q0.946 0 1.616 0.67t0.67 1.616v6.857q0 0.946-0.67 1.616t-1.616 0.67v2.857q0 1.179-0.839 2.018t-2.018 0.839h-33.143q-1.179 0-2.018-0.839t-0.839-2.018v-17.143q0-1.179 0.839-2.018t2.018-0.839h33.143q1.179 0 2.018 0.839t0.839 2.018v2.857zM38.857 19.429v-6.857h-2.286v-5.143q0-0.25-0.161-0.411t-0.411-0.161h-33.143q-0.25 0-0.411 0.161t-0.161 0.411v17.143q0 0.25 0.161 0.411t0.411 0.161h33.143q0.25 0 0.411-0.161t0.161-0.411v-5.143h2.286z"></path>
</symbol>
</defs>
</svg>
